<svg width="48" height="48" viewBox="0 0 48 48" fill="none" xmlns="http://www.w3.org/2000/svg">
<g filter="url(#filter0_d_769_343)">
<path d="M4 5C4 2.23858 6.23858 0 9 0H39C41.7614 0 44 2.23858 44 5V35C44 37.7614 41.7614 40 39 40H9C6.23858 40 4 37.7614 4 35V5Z" fill="url(#paint0_linear_769_343)"/>
</g>
<path fill-rule="evenodd" clip-rule="evenodd" d="M27.7607 33.4891C33.6663 31.8462 38 26.4292 38 20C38 12.268 31.732 6 24 6C16.268 6 10 12.268 10 20C10 26.6202 14.595 32.1671 20.7696 33.6255C20.7326 33.0564 20.7403 32.2704 20.7511 31.1889C20.7573 30.5633 20.7644 29.8387 20.7645 29C20.7645 28.4789 20.8032 27.9734 20.876 27.4913L20.0944 27.3352C19.644 27.2452 19.2234 27.0439 18.8708 26.7496L16.2676 24.5764C15.9497 24.3109 15.9071 23.838 16.1725 23.52C16.438 23.202 16.9109 23.1594 17.2289 23.4249L19.8321 25.5981C19.9923 25.7318 20.1836 25.8234 20.3883 25.8643L21.2221 26.0309C21.5165 25.1459 21.9384 24.402 22.445 23.8726C19.1708 23.391 16.7422 21.5528 16.7422 18.4998C16.7422 16.9658 17.0161 15.5559 17.798 14.4442C17.7939 14.2685 17.7845 14.0716 17.7745 13.8635L17.7745 13.8634C17.7154 12.6304 17.6373 11 18.539 11C19.2583 11 20.3142 11.6246 20.9634 12.3822C21.8678 12.1348 22.9507 12 24.2422 12C25.4406 12 26.4563 12.1096 27.3151 12.3124C27.9641 11.5933 29.022 11 29.7422 11C30.644 11 30.5658 12.5445 30.5068 13.7127L30.5068 13.7128C30.4998 13.8508 30.4931 13.9834 30.4883 14.1077C31.4477 15.2644 31.7422 16.8065 31.7422 18.4998C31.7422 21.5411 29.332 23.377 26.0767 23.867C27.0879 24.919 27.7634 26.8243 27.7634 29C27.7634 29.814 27.7709 30.5193 27.7773 31.1303V31.1304V31.1305C27.7882 32.1631 27.7963 32.9262 27.7607 33.4891Z" fill="black"/>
<defs>
<filter id="filter0_d_769_343" x="0" y="0" width="48" height="48" filterUnits="userSpaceOnUse" color-interpolation-filters="sRGB">
<feFlood flood-opacity="0" result="BackgroundImageFix"/>
<feColorMatrix in="SourceAlpha" type="matrix" values="0 0 0 0 0 0 0 0 0 0 0 0 0 0 0 0 0 0 127 0" result="hardAlpha"/>
<feOffset dy="4"/>
<feGaussianBlur stdDeviation="2"/>
<feComposite in2="hardAlpha" operator="out"/>
<feColorMatrix type="matrix" values="0 0 0 0 0 0 0 0 0 0 0 0 0 0 0 0 0 0 0.25 0"/>
<feBlend mode="normal" in2="BackgroundImageFix" result="effect1_dropShadow_769_343"/>
<feBlend mode="normal" in="SourceGraphic" in2="effect1_dropShadow_769_343" result="shape"/>
</filter>
<linearGradient id="paint0_linear_769_343" x1="44" y1="-2.37616e-06" x2="-12.5473" y2="34.1288" gradientUnits="userSpaceOnUse">
<stop stop-color="#1034F2"/>
<stop offset="1" stop-color="#FC8901"/>
</linearGradient>
</defs>
</svg>
