<svg width="30" height="30" viewBox="0 0 30 30" fill="none" xmlns="http://www.w3.org/2000/svg">
<g clip-path="url(#clip0_558_552)">
<path d="M25 27.5H5C4.66848 27.5 4.35054 27.3683 4.11612 27.1339C3.8817 26.8995 3.75 26.5815 3.75 26.25V3.75C3.75 3.41848 3.8817 3.10054 4.11612 2.86612C4.35054 2.6317 4.66848 2.5 5 2.5H25C25.3315 2.5 25.6495 2.6317 25.8839 2.86612C26.1183 3.10054 26.25 3.41848 26.25 3.75V26.25C26.25 26.5815 26.1183 26.8995 25.8839 27.1339C25.6495 27.3683 25.3315 27.5 25 27.5ZM11.25 7.5H8.75V10C8.75 11.6576 9.40848 13.2473 10.5806 14.4194C11.7527 15.5915 13.3424 16.25 15 16.25C16.6576 16.25 18.2473 15.5915 19.4194 14.4194C20.5915 13.2473 21.25 11.6576 21.25 10V7.5H18.75V10C18.75 10.9946 18.3549 11.9484 17.6517 12.6517C16.9484 13.3549 15.9946 13.75 15 13.75C14.0054 13.75 13.0516 13.3549 12.3483 12.6517C11.6451 11.9484 11.25 10.9946 11.25 10V7.5Z" fill="#09121F"/>
</g>
<defs>
<clipPath id="clip0_558_552">
<rect width="30" height="30" fill="white"/>
</clipPath>
</defs>
</svg>
