<svg width="52" height="53" viewBox="0 0 52 53" fill="none" xmlns="http://www.w3.org/2000/svg">
<path d="M19.8409 20.7225C18.8783 20.2558 17.8935 20.0225 16.8717 20.0225H13.762V33.0967H16.4127C17.738 33.0967 18.9005 32.8483 19.9149 32.344C20.9219 31.8472 21.7141 31.102 22.2843 30.1311C22.8544 29.1526 23.1357 27.9859 23.1357 26.6235C23.1357 25.1407 22.8248 23.8988 22.2028 22.9053C21.5883 21.9192 20.8034 21.1891 19.8409 20.7225Z" fill="url(#paint0_linear_103_327)"/>
<path d="M25.9419 0.30957C11.6443 0.30957 0.0566406 12.0891 0.0566406 26.6235C0.0566406 41.158 11.6443 52.9375 25.9419 52.9375C40.2395 52.9375 51.8272 41.158 51.8272 26.6235C51.8272 12.0891 40.2395 0.30957 25.9419 0.30957ZM24.9349 31.659C24.0983 33.0515 22.9728 34.1203 21.5586 34.873C20.1518 35.6257 18.6117 36.002 16.9457 36.002H10.7854V17.1472H16.0572C18.3822 17.1472 20.3073 17.6139 21.8252 18.5472C23.343 19.4805 24.4537 20.6773 25.1497 22.1451C25.8457 23.6128 26.1937 25.1709 26.1937 26.8343C26.1937 28.6633 25.7716 30.2666 24.9349 31.659ZM40.358 33.5332C39.8619 34.3461 39.1511 34.9934 38.2182 35.4752C37.2852 35.9569 36.182 36.1977 34.9085 36.1977C33.7904 36.1977 32.6872 36.0171 31.5988 35.6633C30.5103 35.3096 29.5478 34.8203 28.6963 34.2031L30.0217 31.8472C30.651 32.3289 31.3914 32.7354 32.2503 33.0515C33.1092 33.3676 33.9015 33.5332 34.6345 33.5332C35.5378 33.5332 36.3227 33.3149 37.0039 32.8709C37.6851 32.4343 38.0257 31.7569 38.0257 30.8386C38.0257 30.116 37.7443 29.5063 37.1742 29.0246C36.604 28.5429 35.8118 28.0988 34.79 27.7074C33.7386 27.3085 32.8649 26.9171 32.1689 26.5257C31.4729 26.1343 30.8732 25.5924 30.3771 24.8924C29.8736 24.1924 29.6292 23.3192 29.6292 22.2655C29.6292 20.73 30.1401 19.4881 31.1693 18.5472C32.1985 17.6063 33.5535 17.102 35.2343 17.0343C36.456 17.0343 37.5296 17.1773 38.4551 17.4633C39.3806 17.7494 40.2395 18.1483 41.0392 18.6676L39.9212 20.9709C38.3218 20.1278 36.9076 19.6988 35.6711 19.6988C34.753 19.6988 34.0274 19.9096 33.4943 20.3235C32.9612 20.7375 32.6946 21.3096 32.6946 22.0322C32.6946 22.7397 33.0278 23.3343 33.7016 23.8085C34.3754 24.2827 35.3083 24.7569 36.5152 25.216C37.4333 25.5472 38.2182 25.916 38.8697 26.3451C39.5213 26.7666 40.0618 27.3386 40.4839 28.0687C40.9059 28.7913 41.1206 29.7096 41.1206 30.816C41.091 31.8171 40.8467 32.7278 40.358 33.5332Z" fill="url(#paint1_linear_103_327)"/>
<defs>
<linearGradient id="paint0_linear_103_327" x1="11.4706" y1="18.4338" x2="27.2922" y2="21.2333" gradientUnits="userSpaceOnUse">
<stop stop-color="#00C6FF"/>
<stop offset="1" stop-color="#0183E7"/>
</linearGradient>
<linearGradient id="paint1_linear_103_327" x1="-12.5984" y1="-6.08546" x2="72.5031" y2="14.5747" gradientUnits="userSpaceOnUse">
<stop stop-color="#00C6FF"/>
<stop offset="1" stop-color="#0183E7"/>
</linearGradient>
</defs>
</svg>
